<?xml version="1.0" encoding="utf-8"?>
<!-- Generator: Adobe Illustrator 27.7.0, SVG Export Plug-In . SVG Version: 6.00 Build 0)  -->
<svg version="1.1" xmlns="http://www.w3.org/2000/svg" xmlns:xlink="http://www.w3.org/1999/xlink" x="0px" y="0px"
	 viewBox="0 0 14 14" style="enable-background:new 0 0 14 14;" xml:space="preserve">
<g id="Layer_1">
	<path d="M3.4,9l3.2,1.8L7,11.1l0.5-0.3L10.6,9l0.4,0.3l1.1,0.6l-5.1,3l-5.2-3l1.1-0.6L3.4,9 M7,0L0,4.1l2.5,1.5L0,7l2.5,1.4L0,9.9
		L7,14l7-4.1l-2.5-1.4L14,7l-2.5-1.4L14,4.1L7,0z M7,7.1L5.9,6.4L4.3,5.5L3.4,5L1.9,4.1l5.1-3l5.2,3L10.6,5L9.7,5.6L8.1,6.5L7,7.1z
		 M7,10L3.4,7.9L1.9,7l1.6-0.9L4.9,7L7,8.2L9.1,7l1.5-0.9L12.2,7l-1.6,0.9L7,10z"/>
</g>
<g id="Layer_2">
	<path d="M7.2,6C7.1,6.1,6.9,6.1,6.8,6S6.5,5.9,6.5,5.8L6.3,4.3L5,3.5L4.6,3.8L4.3,3.6l1.8-1.1l0.3,0.2L6,2.9l1.3,0.8l2.5,0.1
		c0.2,0,0.3,0.1,0.4,0.2c0.1,0.1,0.1,0.2-0.1,0.3L7.2,6z M6.9,5.8L10,4L7.2,3.9L5.8,3.1L5.3,3.4l1.4,0.8L6.9,5.8z"/>
</g>
</svg>
