<?xml version="1.0" encoding="UTF-8"?>
<svg xmlns="http://www.w3.org/2000/svg" viewBox="0 0 122.36 111.18">
  <defs>
    <style>
      .cls-1, .cls-2 {
        stroke: #000;
        stroke-miterlimit: 10;
      }

      .cls-2 {
        fill: none;
        stroke-width: 10px;
      }
    </style>
  </defs>
  <g id="Framework">
    <polyline class="cls-2" points="36.18 43.09 11.18 55.59 36.18 68.09 61.18 80.59 111.18 55.59 86.18 43.09"/>
    <polyline class="cls-2" points="36.18 68.09 11.18 80.59 61.18 105.59 111.18 80.59 86.18 68.09"/>
    <polygon class="cls-2" points="111.18 30.59 61.18 55.59 11.18 30.59 61.18 5.59 111.18 30.59"/>
  </g>
  <g id="Flask">
    <path class="cls-1" d="m63.63,43.23c-1.03.52-2.27.63-3.7.35-1.44-.28-2.21-.81-2.31-1.58l-1.59-9.99-10.4-5.2-1.93.96c-.32.16-.69.23-1.13.23-.44,0-.82-.09-1.15-.25s-.5-.35-.5-.57.15-.4.47-.56l11.86-5.93c.32-.16.69-.23,1.13-.23.44,0,.82.09,1.15.25s.5.35.5.57-.15.4-.47.56l-1.93.96,10.4,5.2,19.98.8c1.54.05,2.59.44,3.16,1.16.57.72.33,1.34-.7,1.85l-22.84,11.42Zm-2.76-.93l23.73-11.86-21.95-.89-11.25-5.62-3.56,1.78,11.25,5.62,1.78,10.97Z"/>
  </g>
</svg>