<?xml version="1.0" encoding="utf-8"?>
<!-- Generator: Adobe Illustrator 27.7.0, SVG Export Plug-In . SVG Version: 6.00 Build 0)  -->
<svg version="1.1" xmlns="http://www.w3.org/2000/svg" xmlns:xlink="http://www.w3.org/1999/xlink" x="0px" y="0px"
	 viewBox="0 0 122.36 111.18" style="enable-background:new 0 0 122.36 111.18;" xml:space="preserve">
<style type="text/css">
	.st0{fill:none;stroke:#000000;stroke-width:10;stroke-miterlimit:10;}
	.st1{fill:#010101;}
</style>
<g id="Layer_2">
	<polyline class="st0" points="36.18,43.09 11.18,55.59 36.18,68.09 61.18,80.59 111.18,55.59 86.18,43.09 	"/>
	<polyline class="st0" points="36.18,68.09 11.18,80.59 61.18,105.59 111.18,80.59 86.18,68.09 	"/>
	<polygon class="st0" points="111.18,30.59 61.18,55.59 11.18,30.59 61.18,5.59 	"/>
</g>
<g id="Layer_1">
	<path class="st1" d="M63.63,43.23c-1.03,0.52-2.27,0.63-3.7,0.35c-1.44-0.28-2.21-0.81-2.31-1.58l-1.59-9.99l-10.4-5.2l-1.93,0.96
		c-0.32,0.16-0.69,0.23-1.13,0.23c-0.44,0-0.82-0.09-1.15-0.25c-0.33-0.16-0.5-0.35-0.5-0.57c-0.01-0.22,0.15-0.4,0.47-0.56
		l11.86-5.93c0.32-0.16,0.69-0.23,1.13-0.23c0.44,0,0.82,0.09,1.15,0.25c0.33,0.16,0.5,0.35,0.5,0.57s-0.15,0.4-0.47,0.56
		l-1.93,0.96l10.4,5.2l19.98,0.8c1.54,0.05,2.59,0.44,3.16,1.16c0.57,0.72,0.33,1.34-0.7,1.85L63.63,43.23z M60.87,42.3L84.6,30.44
		l-21.95-0.89L51.4,23.92l-3.56,1.78l11.25,5.62L60.87,42.3z"/>
</g>
</svg>
